<?xml version="1.0" encoding="utf-8"?>
<!-- Generator: Adobe Illustrator 16.0.0, SVG Export Plug-In . SVG Version: 6.00 Build 0)  -->
<!DOCTYPE svg PUBLIC "-//W3C//DTD SVG 1.1//EN" "http://www.w3.org/Graphics/SVG/1.1/DTD/svg11.dtd">
<svg version="1.1" id="Layer_1" xmlns="http://www.w3.org/2000/svg" xmlns:xlink="http://www.w3.org/1999/xlink" x="0px" y="0px"
	 width="841.891px" height="1190.551px" viewBox="0 0 841.891 1190.551" enable-background="new 0 0 841.891 1190.551"
	 xml:space="preserve">
<g id="Layer_1_1_">
</g>
<g id="Layer_2">
	<g id="Nyakkendő">
		<path fill="#C8203A" d="M370.574,571.612c-33.154,0-80.271,7.834-107.612-10.013c-12.469-8.142-19.397-19.866-35.985-23.932
			c-43.967-10.78-87.628-4.345-126.538,15.037c-22.005,10.964-20.711,18.222-20.747,43.412c-0.027,20.503,4.4,32.202,10.964,50.958
			c10.444,29.853,19.586,66.059,43.724,86.979c17.294,14.99,37.319,9.08,56.617,2.945c20.851-6.63,41.392-12.314,62.462-19.431
			c34.862-11.77,67.651-24.799,99.699-38.615c33.538-14.45,70.883-8.586,107.708-13.941c19.302-2.812,29.997-4.553,44.186-15.598
			c13.518-10.522,22.626-18.32,42.658-17.365c18.745,0.894,35.239,5.688,54.732,5.666c25.876-0.025,52.23-1.494,78.037-0.091
			c27.354,1.479,78.877,26.295,97.991-3.687c19.416-30.457,8.772-70.075-3.74-100.098c-13.319-31.952-13.415-58.739-52.818-67.999
			c-31.436-7.39-64.689,7.906-92.617,18.877c-31.866,12.529-63.851,25.462-92.906,42.928c-25.914,15.575-42.459,9.333-71.896,7.975
			c-37.12-1.712-80.309,14.387-103.362,43.546"/>
		<path d="M182.752,483.687"/>
		<path d="M534.76,568.431c28.584,38.699,20.778,103.193-73.197,118.237c-93.974,15.051-108.704-30.097-113.898-62.344
			c-5.194-32.247-17.619-83.006,75.354-96.74C495.776,516.826,506.177,529.732,534.76,568.431z M431.135,558.946
			c-53.821,8.08-46.63,37.928-43.62,56.891c3.006,18.962,11.531,45.505,65.936,36.658c54.397-8.85,58.917-46.774,42.371-69.529
			C479.268,560.215,473.255,552.626,431.135,558.946z"/>
		<path d="M398.578,675.923c-58.447,46.719-304.765,116.079-314.722,56.621c-9.96-59.451-35.969-227.902,54.485-225.29
			c90.455,2.608,217.082,47.8,226.836,52.596L398.578,675.923z M354.681,596.203c-7.533-3.283-124.069-43.904-193.914-45.693
			c-69.839-1.786-49.755,113.552-42.067,154.251c7.688,40.705,214.218-28.536,259.345-60.521L354.681,596.203z"/>
		<path d="M496.272,546.189c0,0,181.587-116.592,224.799-119.256c43.214-2.664,82.028,88.747,87.385,149.762
			c5.36,61.012-4.019,97.069-62.975,91.521c-58.945-5.553-198.288-7.438-215.708-29.37
			C529.776,638.843,509.667,547.576,496.272,546.189z M536.134,612.963c6.009,6.01,133.274,14.554,183.395,17.941
			c50.122,3.389,58.102-18.631,53.549-55.899c-4.561-37.265-29.742-108.215-61.889-98.899
			c-75.772,21.954-203.54,96.486-203.54,96.486C519.045,573.434,530.12,606.949,536.134,612.963z"/>
	</g>
</g>
</svg>
