<?xml version="1.0" encoding="utf-8"?>
<!-- Generator: Adobe Illustrator 16.0.0, SVG Export Plug-In . SVG Version: 6.00 Build 0)  -->
<!DOCTYPE svg PUBLIC "-//W3C//DTD SVG 1.1//EN" "http://www.w3.org/Graphics/SVG/1.1/DTD/svg11.dtd">
<svg version="1.1" id="Layer_1" xmlns="http://www.w3.org/2000/svg" xmlns:xlink="http://www.w3.org/1999/xlink" x="0px" y="0px"
	 width="737.13px" height="328.64px" viewBox="0 0 737.13 328.64" enable-background="new 0 0 737.13 328.64" xml:space="preserve">
<g id="Layer_2">
	<g id="Nyakkendő">
		<path fill="#C8203B" d="M297.945,144.733c-33.154,0-80.271,7.834-107.612-10.013c-12.469-8.142-19.397-19.866-35.985-23.932
			c-43.967-10.78-87.628-4.345-126.538,15.037C5.805,136.789,7.099,144.046,7.063,169.236c-0.027,20.503,4.4,32.202,10.964,50.958
			c10.444,29.853,19.586,66.059,43.724,86.979c17.294,14.99,37.319,9.08,56.617,2.945c20.851-6.63,41.392-12.314,62.462-19.431
			c34.862-11.77,67.651-24.799,99.699-38.615c33.538-14.45,70.883-8.586,107.708-13.941c19.302-2.812,29.997-4.553,44.186-15.598
			c13.518-10.522,22.626-18.32,42.658-17.365c18.745,0.894,35.239,5.688,54.732,5.666c25.876-0.025,52.23-1.494,78.037-0.091
			c27.354,1.479,78.877,26.295,97.991-3.687c19.416-30.457,8.772-70.075-3.74-100.098c-13.319-31.952-13.415-58.739-52.818-67.999
			c-31.436-7.39-64.689,7.906-92.617,18.877C524.8,70.366,492.815,83.3,463.76,100.766c-25.914,15.575-42.459,9.333-71.896,7.975
			c-37.12-1.712-80.309,14.387-103.362,43.546"/>
		<path fill="#010101" d="M110.124,56.809"/>
		<path fill="#010101" d="M462.132,141.553c28.584,38.699,20.778,103.193-73.197,118.237
			c-93.974,15.051-108.704-30.097-113.898-62.344c-5.194-32.247-17.619-83.006,75.354-96.74
			C423.147,89.948,433.549,102.853,462.132,141.553z M358.507,132.067c-53.821,8.08-46.63,37.928-43.62,56.891
			c3.006,18.962,11.531,45.505,65.936,36.658c54.397-8.85,58.917-46.774,42.371-69.529
			C406.64,133.336,400.626,125.748,358.507,132.067z"/>
		<path fill="#010101" d="M325.95,249.044c-58.447,46.719-304.765,116.079-314.722,56.621
			c-9.96-59.451-35.969-227.902,54.485-225.29c90.455,2.608,217.082,47.8,226.836,52.596L325.95,249.044z M282.052,169.324
			c-7.533-3.283-124.069-43.904-193.914-45.693c-69.839-1.786-49.755,113.552-42.067,154.251
			c7.688,40.705,214.218-28.536,259.345-60.521L282.052,169.324z"/>
		<path fill="#010101" d="M423.644,119.31c0,0,181.587-116.592,224.799-119.256c43.214-2.664,82.028,88.747,87.385,149.762
			c5.36,61.012-4.019,97.069-62.975,91.521c-58.945-5.553-198.288-7.438-215.708-29.37
			C457.147,211.964,437.038,120.698,423.644,119.31z M463.505,186.084c6.009,6.01,133.274,14.554,183.395,17.941
			c50.122,3.389,58.102-18.631,53.549-55.899c-4.561-37.265-29.742-108.215-61.889-98.899
			c-75.772,21.954-203.54,96.486-203.54,96.486C446.416,146.556,457.491,180.07,463.505,186.084z"/>
	</g>
</g>
</svg>
