<?xml version="1.0" encoding="utf-8"?>
<!-- Generator: Adobe Illustrator 16.0.0, SVG Export Plug-In . SVG Version: 6.00 Build 0)  -->
<!DOCTYPE svg PUBLIC "-//W3C//DTD SVG 1.1//EN" "http://www.w3.org/Graphics/SVG/1.1/DTD/svg11.dtd">
<svg version="1.1" id="Layer_1" xmlns="http://www.w3.org/2000/svg" xmlns:xlink="http://www.w3.org/1999/xlink" x="0px" y="0px"
	 width="828.64px" height="619.75px" viewBox="0 0 828.64 619.75" enable-background="new 0 0 828.64 619.75" xml:space="preserve">
<g id="Layer_2">
	<g id="Sapka">
		<path fill="#20B24B" d="M29.328,593.649c70.743-5.938,148.86,0.024,220.324,0c60.866-0.021,121.36-9.393,181.25-15.563
			c50.408-5.198,98.176-19.886,149.41-21.79c54.23-2.022,100.763,14.68,155.18,11.979c2.501-28.536,5.252-40.146-10.173-64.812
			c-12.586-20.118-36.156-37.478-48.489-56.132c-11.127-16.826-15.896-44.796-31.763-62.25
			c-17.934-19.721-47.521-21.957-70.979-34.324c-39.816-20.994-89.033-47.643-133.864-49.725c-57.812-2.682-116.436,0-174.313,0
			c-84.87,0-127.438,21.426-182.966,81.71c-22.283,24.192-33.044,67.733-38.051,101.259c-5.314,35.602,11.105,78.353,0,109.646"/>
		<path fill="#F2EB44" d="M339.063,302.592c19.852,0,51.185,3.718,66.582-9.728c11.791-10.303,8.474-31.09,10.035-45.01
			c2.141-19.133,13.018-35.112,14.907-53.911c2.02-20.098,2.81-40.93,1.866-61.31c-1.344-29.025-16.34-65.657-40.358-82.529
			c-26.685-18.74-72.069-24.62-105.197-23.01c-39.027,1.9-74.601,13.662-94.833,48.132c-18.732,31.92-26.326,65.797-22.611,102.799
			c4.223,42.104,6.542,76.321,31.914,111.021c27.286,37.322,61.207,9.416,98.79,10.431c1.036,0,2.076,0,3.112,0"/>
		<path fill="#010101" d="M434.007,295.853c0,0,98.581-261.489-110.83-291.583C129.978-27.896,112.34,213.875,199.502,312.447
			l41.994-9.311c0,0-69.949-93.126-53.896-166.933c16.051-73.806,65.812-94.594,112.526-94.576
			c46.715,0.018,157.451,26.784,97.412,250.504L434.007,295.853z"/>
		<path fill="#010101" d="M37.631,596.781C-10.1,300.018,148.659,304.168,324.019,285.417
			C673.82,248.02,766.055,556.313,766.055,556.313L37.631,596.781z M724.547,573.932c0,0-70.846-290.579-397.416-253.179
			c-163.713,18.748-296.705-7.267-252.146,289.501L724.547,573.932z"/>
		<path fill="#010101" d="M14.712,620.959c25.855,1.645,305.981-11.869,379.867-23.163c73.89-11.289,262.524-18.655,380.813-10.371
			c63.918,0.869,60.99-17.383,29.052-29.035c-31.938-11.655-197.148-25.988-366.288-5.213
			c-169.137,20.778-387.688,28.041-424.197,28.041C-3.746,584.636-11.146,619.313,14.712,620.959z"/>
		<path fill="#020202" d="M329.204,227.37c15.079,15.031-2.076,31.128-14.527,17.641c-12.451-13.489-32.944-42.031-32.944-42.031
			s-2.594-5.709-2.594-9.338c0-3.635,3.113-11.157,11.674-11.157s9.859-0.777,7.004-5.706c-2.854-4.927-8.561-12.971-8.561-18.419
			c0-5.447,4.885-10.117,10.873-10.117c5.989,0,19.359,3.898,7.099-11.928c-12.263-15.826-14.597-20.233-21.082-29.312
			c-6.483-9.077,7.524-22.568,19.456-10.117c11.932,12.452,25.189,36.835,29.713,50.326c4.526,13.491,0.896,24.08-5.33,23.715
			c-6.226-0.366-11.932-1.925-7.524,4.563c4.408,6.487,9.08,11.153,8.82,16.604c-0.262,5.447-5.709,9.857-10.636,9.338
			c-4.929-0.521-13.49-1.814-5.707,6.746C322.72,216.737,328.031,226.191,329.204,227.37z"/>
		<path fill="#020202" d="M708.756,524.633c14.461,38.849,23.021,68.256,25.692,76.396c6.484,19.786,51.424,24.391,46.69,3.441
			c-2.027-8.949-11.765-38.355-29.919-77.717L708.756,524.633z"/>
	</g>
</g>
</svg>
