<?xml version="1.0" encoding="utf-8"?>
<!-- Generator: Adobe Illustrator 16.0.0, SVG Export Plug-In . SVG Version: 6.00 Build 0)  -->
<!DOCTYPE svg PUBLIC "-//W3C//DTD SVG 1.1//EN" "http://www.w3.org/Graphics/SVG/1.1/DTD/svg11.dtd">
<svg version="1.1" xmlns="http://www.w3.org/2000/svg" xmlns:xlink="http://www.w3.org/1999/xlink" x="0px" y="0px"
	 width="841.89px" height="1190.55px" viewBox="0 0 841.89 1190.55" enable-background="new 0 0 841.89 1190.55"
	 xml:space="preserve">
<g id="Layer_1">
</g>
<g id="Layer_2">
	<path d="M425.174,807.587c-2.313,17.433-5.031,35.145-8.196,53.097l23.088-3.304c0,0,3.102-14.272,6.701-40.079L425.174,807.587z"
		/>
	<path d="M436.142,664.118c-0.464,21.503-1.465,43.769-3.119,66.693l21.84,6.344c1.258-19.007,2.202-39.928,2.595-62.508
		L436.142,664.118z"/>
	<path d="M434.686,566.608c1.329,25.857,1.996,53.496,1.691,82.637l21.256,10.473c0.17-27.9-0.526-58.106-2.5-90.186"/>
	<path d="M426.352,471.637c3.146,25.156,5.928,53.582,7.77,84.756l19.759,1.827c-1.893-26.467-4.291-56.018-8.165-84.647
		L426.352,471.637z"/>
	<path d="M411.189,380.215c-4.483-21.125-7.755-32.633-7.755-32.633h18.763c2.588,10.793,5.006,21.51,7.26,32.138L411.189,380.215z"
		/>
	<path d="M420.73,432.001c1.491,9.373,2.973,19.438,4.397,30.151l19.162,1.194c-1.811-12.624-3.837-25.429-6.097-38.394
		L420.73,432.001z"/>
	<path d="M432.386,742.17c-0.43,5.449-0.897,8.012-1.401,13.533c-1.092,11.925-2.365,24.011-3.834,36.243l21.613,10.144
		c1.387-11.213,2.774-23.977,4.028-38.146c0.439-4.979,0.865-10.13,1.266-15.449L432.386,742.17z"/>
	<path d="M688.771,457.133"/>
	<g id="Fej">
		<path d="M232.147,169.952c-14.408,45.785,24.366,129.142,34.112,135.476c9.746,6.335,16.082-1.949,10.234-8.284
			c-27.777-36.549-36.356-99.842-21.442-124.755c62.377-112.572,180.797-49.707,203.214-23.878
			c16.269,16.294,33.139,54.581,30.701,96.49c-2.437,41.91-17.391,103.493-101.658,94.875
			c-84.268-8.619-126.791-114.825-76.461-173.335c28.506-33.139,82.09-15.687,92.096-7.31c10.005,8.377,40.328,29.157,38.498,70.175
			s-20.235,52.813-42.884,50.682c-22.649-2.13-65.135-9.526-62.378-54.433c1.214-19.774,15.294-30.259,30.096-30.849
			s22.224,16.578,31.396,16.817c10.376,0.271,5.021-32.455-42.555-31.704c-47.576,0.751-60.034,111.262,37.513,114.731
			c97.546,3.469,81.209-97.346,32.73-138.068c-33.857-29.514-89.412-34.875-119.035-14.901
			c-41.238,28.566-70.203,184.216,76.804,214.917c147.007,30.701,149.211-194.93,75.138-237.327
			C384.192,76.873,270.646,62.253,232.147,169.952z"/>
	</g>
	<path id="Bal_kar" d="M438.191,497.037c0,0,65.571-57.805,163.192-61.283c97.621-3.475,125.718,46.769,125.924,70.623
		c0.205,23.854-18.326,41.089-40.127,50.016l-18.878-3.201c0,0,40.204-19.5,41.667-46.814c1.462-27.315-46.655-58.51-109.584-54.245
		c-62.93,4.269-86.707,15.1-156.323,66.7L438.191,497.037z"/>
	<path id="Jobb_kar" d="M447.688,587.463c0,0,247.85-111.89,280.649,22.895c32.801,134.784-255.209,113.586-276.407,104.814
		l-4.242-15.352c0,0,269.826,29.006,264.474-76.193c-5.353-105.2-235.82-36.873-264.474-7.021V587.463z"/>
	<path id="Bal_kéz" d="M697.973,465.879c0,0,9.868-4.934,19.188-4.751c9.319,0.183,23.574,5.3,23.208,16.813
		c0,0,0,5.117-3.654,8.224c0,0,16.63,1.827,16.813,13.889c0,0,1.279,8.041-8.406,15.351c0,0,8.406,4.751,7.675,11.513
		c-0.73,6.762-7.492,16.082-21.198,15.716c-13.706-0.366-21.747-9.138-21.747-9.138l6.396-6.03c0,0,10.051,7.675,21.016,7.31
		c10.965-0.365,9.32-4.934,6.762-7.31c-2.559-2.376-17.544-8.041-21.198-8.589c-3.655-0.548-1.097-5.848-1.097-5.848
		s22.66-3.466,23.574-11.145s-19.371-5.12-23.392-1.83c-4.021,3.289-6.214-14.437-6.214-14.437s16.813-5.3,13.523-12.61
		c-3.289-7.31-21.93-1.645-22.478,1.097S697.973,465.879,697.973,465.879z"/>
	<path id="Jobb_kéz" d="M715.091,666.727c0,0,4.386,1.95,9.503,1.707c5.116-0.245,30.458-6.336,30.458-22.418
		c0-8.283-6.578-15.594-8.041-16.324c0,0,11.452-8.529,11.452-20.225c0-11.696-8.529-16.813-10.478-17.544
		c0,0,3.898-8.038,3.168-10.725c-0.731-2.684-3.442-30.282-31.433-29.488c0,0-12.915-0.243-25.098,12.915l7.31,6.579
		c0,0,3.897-7.553,17.544-7.553c13.646,0,23.88,10.231,23.88,14.131c0,3.898-9.991,14.62-25.829,13.158l4.386,12.915
		c0,0,6.823-4.386,16.326-4.386s12.427,6.091,12.427,8.772c0,2.678-5.116,14.861-17.544,15.35
		c-12.427,0.486-12.184-2.436-12.184-2.436l1.95,16.082c0,0,5.359-2.436,9.259-2.436c3.898,0,15.595,6.091,15.595,11.695
		c0,5.605-11.586,12.433-20.169,11.456c-8.584-0.974-9.314-8.526-9.314-8.526L715.091,666.727z"/>
	<g id="Lábak">
		<path d="M420.157,846.078c0,0-146.879-2.853-173.775,0c-26.896,2.855-23.509,25.25-15.97,89.005
			c3.362,28.429,7.564,77.534,20.173,85.288c12.607,7.753,82.37,24.984,103.382,12.923s-5.689-89.022-23.534-115.442
			c-7.565-11.198,1.681-12.06,12.608-13.783c10.926-1.723,79.569-21.813,79.569-21.813s8.951-16.241-2.452-13.634
			c-11.402,2.608-93.927,16.769-103.173,25.971c-9.245,9.202-6.804,13.881,1.642,27.865c8.446,13.984,37.535,88.272,22.174,89.021
			s-66.873,5.242-77.144-10.295c-10.27-15.54-11.391-62.655-15.594-86.776c-4.203-24.121-5.829-47.576,4.763-49.954
			c11.876-2.667,128.13,2.449,152.878-2.659C430.454,856.686,431.216,846.276,420.157,846.078z"/>
		<path d="M410.43,883.355c0,0-25.478,115.045-24.386,140.862c1.092,25.815-0.599,37.771,15.435,37.53
			c16.036-0.241,91.669,27.169,116.449,40.788c18.736,10.298,28.017-1.563,34.043-11.896c6.028-10.335,34.813-64.503,0.004-70.873
			c-34.811-6.369-87.538-1.1-97.587-13.945c-10.05-12.844-4-79.328-4.42-107.781s-10.479-26.758-11.484-14.093
			c-1.338,16.862-15.779,116.585,10.001,132.183c25.783,15.601,87.377,7.794,93.729,22.602c6.352,14.808,0.505,44.445-15.157,45.845
			c-15.662,1.395-111.568-28.12-121.604-36.826s-6.545-15.773-4.661-29.887c1.883-14.114,33.415-133.276,25.024-145.718
			C417.43,859.704,410.43,883.355,410.43,883.355z"/>
		<path d="M444.621,894.116c0,0,60.776,57.754,75.535,68.713c14.76,10.959,47.898,55.406,67.891,32.399
			c19.991-23.007,83.38-106.309,95.373-128.062c11.992-21.754-11.063-30.295-25.351-35.916c-14.289-5.62-46.949-19.681-55.555,6.337
			c-3.387,8.064-21.929,36.549-29.727,52.631c-7.799,16.082-15.736,27.299-37.326,14.307
			c-21.589-12.993-78.501-58.611-94.333-64.626l-7.011,15.537c0,0,84.264,58.644,102.537,64.157s34.638,11.027,45.872-12.531
			c11.235-23.557,29.044-62.033,38.646-67.163c13.135-7.018,26.77-1.995,32.997,2.074s23.539,11.771,8.12,32.416
			c-15.418,20.645-70.517,87.277-74.684,96.163c-7.509,15.182-22.458,16.753-42.987-5.826c-20.529-22.578-85.19-80.91-98.323-87.17
			C433.162,871.294,444.621,894.116,444.621,894.116z"/>
	</g>
	<path d="M429.457,387.055"/>
	<polygon points="412.457,387.055 420.73,424.952 434.686,418.487 429.457,387.055 	"/>
</g>
</svg>
