<?xml version="1.0" encoding="utf-8"?>
<!-- Generator: Adobe Illustrator 16.0.0, SVG Export Plug-In . SVG Version: 6.00 Build 0)  -->
<!DOCTYPE svg PUBLIC "-//W3C//DTD SVG 1.1//EN" "http://www.w3.org/Graphics/SVG/1.1/DTD/svg11.dtd">
<svg version="1.1" xmlns="http://www.w3.org/2000/svg" xmlns:xlink="http://www.w3.org/1999/xlink" x="0px" y="0px"
	 width="841.89px" height="1190.55px" viewBox="0 0 841.89 1190.55" enable-background="new 0 0 841.89 1190.55"
	 xml:space="preserve">
<g id="Layer_1">
</g>
<g id="Layer_2">
	<path d="M436.698,866.146c-1.582,11.924-3.441,24.039-5.606,36.318l15.792-2.26c0,0,2.122-9.763,4.584-27.414L436.698,866.146z"/>
	<path d="M444.2,768.013c-0.317,14.708-1.002,29.938-2.134,45.619l14.938,4.339c0.86-13.001,1.507-27.311,1.775-42.756
		L444.2,768.013z"/>
	<path d="M443.204,701.315c0.909,17.687,1.365,36.592,1.157,56.524l14.539,7.163c0.116-19.084-0.36-39.745-1.71-61.688"/>
	<path d="M437.504,636.354c2.152,17.207,4.055,36.65,5.314,57.974l13.515,1.25c-1.294-18.104-2.935-38.316-5.585-57.899
		L437.504,636.354z"/>
	<path d="M427.133,573.821c-3.066-14.449-5.305-22.321-5.305-22.321h12.834c1.771,7.383,3.424,14.713,4.966,21.982L427.133,573.821z
		"/>
	<path d="M433.659,609.243c1.02,6.411,2.033,13.296,3.008,20.624l13.106,0.816c-1.238-8.635-2.624-17.394-4.17-26.262
		L433.659,609.243z"/>
	<path d="M441.631,821.4c-0.294,3.728-0.613,5.48-0.958,9.257c-0.747,8.157-1.618,16.424-2.623,24.791l14.784,6.938
		c0.948-7.67,1.897-16.4,2.755-26.093c0.301-3.405,0.592-6.929,0.866-10.567L441.631,821.4z"/>
	<path d="M617,626.434"/>
	<g id="Sapka">
		<path fill="#F3EB40" d="M376.5,334.5c6.377,0,16.442,1.195,21.388-3.125c3.788-3.309,2.723-9.987,3.224-14.458
			c0.688-6.147,4.182-11.28,4.789-17.319c0.649-6.456,0.902-13.148,0.6-19.695c-0.432-9.324-5.249-21.092-12.965-26.512
			c-8.572-6.02-23.152-7.909-33.794-7.391c-12.537,0.61-23.965,4.388-30.464,15.462c-6.018,10.254-8.457,21.136-7.264,33.023
			c1.357,13.525,2.102,24.517,10.252,35.665c8.766,11.989,19.662,3.024,31.736,3.35c0.333,0,0.667,0,1,0"/>
		<path d="M407,332.335c0,0,31.667-84.001-35.604-93.668c-62.063-10.333-67.729,67.333-39.729,99l13.49-2.992
			c0,0-22.471-29.916-17.314-53.625s21.142-30.388,36.149-30.382s50.58,8.604,31.293,80.472L407,332.335z"/>
		<path d="M279.667,429.006c-15.333-95.333,35.667-94,92-100.023c112.371-12.014,142,87.023,142,87.023L279.667,429.006z
			 M500.334,421.667c0,0-22.759-93.347-127.667-81.333c-52.592,6.023-95.315-2.333-81,93L500.334,421.667z"/>
		<path d="M272.304,436.773c8.306,0.528,98.294-3.813,122.03-7.44s84.333-5.994,122.333-3.333c20.534,0.28,19.593-5.583,9.333-9.327
			s-63.333-8.348-117.667-1.674s-124.542,9.007-136.271,9.007C266.375,425.105,263.998,436.245,272.304,436.773z"/>
		<path fill="#010101" d="M373.333,310.335c4.843,4.83-0.667,10-4.667,5.667S358.083,302.5,358.083,302.5s-0.833-1.833-0.833-3
			s1-3.583,3.75-3.583s3.167-0.25,2.25-1.833s-2.75-4.167-2.75-5.917s1.569-3.25,3.493-3.25s6.219,1.252,2.28-3.832
			s-4.689-6.5-6.772-9.416s2.417-7.25,6.25-3.25s8.091,11.833,9.545,16.167s0.288,7.735-1.712,7.618s-3.833-0.618-2.417,1.466
			s2.917,3.583,2.833,5.333s-1.834,3.167-3.417,3s-4.333-0.583-1.833,2.167S372.956,309.958,373.333,310.335z"/>
		<path fill="#010101" d="M495.26,405.83c4.646,12.479,7.396,21.926,8.254,24.542c2.083,6.356,16.52,7.835,14.999,1.105
			c-0.651-2.875-3.779-12.321-9.611-24.966L495.26,405.83z"/>
	</g>
	<g id="Fej">
		<path d="M304.667,430c-9.855,31.317,16.667,88.333,23.333,92.667s11-1.333,7-5.667c-19-25-24.868-68.292-14.667-85.333
			c42.667-77,123.667-34,139-16.333c11.128,11.146,22.667,37.333,21,66s-11.896,70.79-69.535,64.895
			c-57.639-5.895-86.726-78.541-52.3-118.562c19.498-22.667,56.15-10.73,62.994-5s27.585,19.943,26.333,48
			s-13.841,36.124-29.333,34.667c-15.492-1.457-44.553-6.516-42.667-37.232c0.831-13.526,10.461-20.697,20.585-21.101
			s15.201,11.339,21.475,11.503c7.098,0.185,3.435-22.199-29.107-21.686s-41.063,76.104,25.659,78.477s55.547-66.585,22.388-94.439
			c-23.159-20.188-61.159-23.854-81.421-10.193c-28.207,19.54-48.02,126.005,52.534,147.005S510,424.333,459.333,395.333
			C408.667,366.333,331,356.333,304.667,430z"/>
	</g>
	<path id="Bal_kar" d="M445.603,653.729c0,0,44.851-39.539,111.624-41.918c66.773-2.377,85.992,31.99,86.133,48.307
		s-12.535,28.105-27.447,34.211L603,692.139c0,0,27.5-13.338,28.5-32.021s-31.912-40.021-74.956-37.104
		c-43.044,2.92-59.308,10.328-106.926,45.623L445.603,653.729z"/>
	<path id="Jobb_kar" d="M452.099,715.58c0,0,169.53-76.533,191.966,15.66S469.5,808.934,455,802.934l-2.901-10.5
		c0,0,184.563,19.84,180.901-52.117s-161.303-25.221-180.901-4.803V715.58z"/>
	<path id="Bal_kéz" d="M623.294,632.416c0,0,6.75-3.375,13.125-3.25s16.125,3.625,15.875,11.5c0,0,0,3.5-2.5,5.625
		c0,0,11.375,1.25,11.5,9.5c0,0,0.875,5.5-5.75,10.5c0,0,5.75,3.25,5.25,7.875s-5.125,11-14.5,10.75s-14.875-6.25-14.875-6.25
		l4.375-4.125c0,0,6.875,5.25,14.375,5s6.375-3.375,4.625-5s-12-5.5-14.5-5.875s-0.75-4-0.75-4s15.5-2.371,16.125-7.623
		s-13.25-3.502-16-1.252s-4.25-9.875-4.25-9.875s11.5-3.625,9.25-8.625s-15-1.125-15.375,0.75S623.294,632.416,623.294,632.416z"/>
	<path id="Jobb_kéz" d="M635.003,769.797c0,0,3,1.334,6.5,1.168c3.5-0.168,20.834-4.334,20.834-15.334
		c0-5.666-4.5-10.666-5.5-11.166c0,0,7.833-5.834,7.833-13.834s-5.834-11.5-7.167-12c0,0,2.667-5.498,2.167-7.336
		c-0.5-1.836-2.354-20.713-21.5-20.17c0,0-8.834-0.166-17.167,8.834l5,4.5c0,0,2.666-5.166,12-5.166s16.334,6.998,16.334,9.666
		c0,2.666-6.834,10-17.667,9l3,8.834c0,0,4.667-3,11.167-3s8.5,4.166,8.5,6c0,1.832-3.5,10.166-12,10.5
		c-8.5,0.332-8.334-1.666-8.334-1.666l1.334,11c0,0,3.666-1.666,6.333-1.666s10.667,4.166,10.667,8s-7.925,8.504-13.796,7.836
		c-5.871-0.666-6.371-5.832-6.371-5.832L635.003,769.797z"/>
	<g id="Karóra">
		<path d="M575.93,798.408c0,0,0.273-32.775-2.977-44.275l-6.5,1.588c0,0,3,16.211,2.5,42.688H575.93z"/>
		<path d="M562.953,798.408c0,0-4.25-17.775-6.25-39.525l-6.402-1.043c0,0-0.848,19.414,7.277,40.854L562.953,798.408z"/>
		<path d="M566.453,722.883c0,0-0.25-17.977-1.5-36.363h-5.261c0,0-0.261,24.863,0,36.363H566.453z"/>
		<path d="M538.764,689.061c0,0,3.393,27.928,4.166,40.5l7.346-3.928c0,0-4.035-28.563-4.179-36.406L538.764,689.061z"/>
		<path d="M542.119,746.393c-2.334-8.24-2.916-23.76,13.084-25.51s22.75,8.75,24.558,17.791s-0.896,20.26-16.808,22.18
			C548.703,762.572,544.453,754.633,542.119,746.393z M556.614,729.561c-5.427,0.713-8.161,6.072-7.411,13.072
			s2.984,11.783,11.367,11.268c8.383-0.518,13.133-7.518,11.633-14.768S564.775,728.488,556.614,729.561z"/>
		<path d="M560.57,740.234c-4.367,0.459-4.359,5.496,0,5.896S564.938,739.775,560.57,740.234z"/>
		<path d="M561.953,742.805c0,0,1-14.105,0-16.014h-4.655c0,0-0.099,16.014,2.278,16.014l1.877,2.578c0,0,7.75-0.75,8.25-1.5
			s0.625-2.928,0-3.65c-0.625-0.725-5.919-0.807-9.133,0.658"/>
	</g>
	<g id="Fény">
		<path fill="#010101" d="M292.5,262.942c4.991,5.12,1.25,10.75-4.083,6.333s-22.21-17.443-32.833-20.833
			c-3.917-1.25-2.75-8.663,2.833-6.832S289.25,259.609,292.5,262.942z"/>
		<path fill="#010101" d="M319.5,224.193c2.086,4.672-2.833,8.75-5.75,4.25s-15.751-26.113-29.5-33.75
			c-3.75-2.083-0.083-8.666,5.5-5.333S313.584,210.944,319.5,224.193z"/>
		<path fill="#010101" d="M359,216.111c-0.135,3.33-6.5,4.75-7,0s0.949-32.85-6.416-47.916c-1.834-3.75,2.666-7.5,5.583-3.5
			S360.166,187.36,359,216.111z"/>
		<path fill="#010101" d="M402.75,218.486c-1.678,5.647-9.125,3.75-6.875-2.625s10.082-30.509,14.875-39.25
			c2.125-3.875,8.25-1.125,6,4S407.875,201.236,402.75,218.486z"/>
		<path fill="#010101" d="M427.875,247.611c-2.87,4.903-9.5,1.75-4.875-5s12.989-19.364,19.625-26c2.875-2.875,8.125,0.5,5,4.375
			S433.875,237.361,427.875,247.611z"/>
	</g>
	<g id="Lábak">
		<path d="M433.267,892.475c0,0-100.466-1.951-118.863,0c-18.397,1.953-16.081,17.271-10.924,60.88
			c2.3,19.445,5.174,53.034,13.798,58.338c8.624,5.303,56.341,17.089,70.714,8.839s-3.892-60.892-16.098-78.963
			c-5.174-7.66,1.15-8.249,8.624-9.428c7.474-1.179,54.426-14.92,54.426-14.92s6.122-11.109-1.678-9.326
			c-7.799,1.784-64.247,11.47-70.571,17.765c-6.324,6.294-4.654,9.494,1.123,19.06s25.674,60.379,15.167,60.891
			s-45.742,3.586-52.767-7.042c-7.025-10.629-7.792-42.856-10.667-59.355c-2.875-16.499-3.987-32.542,3.258-34.169
			c8.124-1.824,87.642,1.676,104.57-1.818C440.31,899.73,440.831,892.61,433.267,892.475z"/>
		<path d="M426.613,917.973c0,0-17.427,78.691-16.68,96.351c0.747,17.658-0.409,25.836,10.557,25.671
			c10.969-0.165,62.702,18.584,79.652,27.899c12.815,7.044,19.163-1.069,23.285-8.137c4.124-7.069,23.813-44.12,0.003-48.478
			c-23.811-4.356-59.877-0.752-66.75-9.539c-6.874-8.785-2.736-54.261-3.023-73.723s-7.168-18.303-7.855-9.64
			c-0.915,11.534-10.793,79.745,6.841,90.414c17.636,10.671,59.767,5.331,64.111,15.459c4.345,10.129,0.346,30.401-10.367,31.358
			c-10.713,0.954-76.313-19.234-83.178-25.189s-4.477-10.789-3.188-20.442c1.288-9.654,22.856-91.162,17.117-99.672
			C431.401,901.795,426.613,917.973,426.613,917.973z"/>
		<path d="M450,925.333c0,0,41.571,39.504,51.667,47s32.763,37.898,46.438,22.161c13.674-15.736,57.032-72.716,65.235-87.595
			c8.203-14.88-7.567-20.722-17.34-24.566c-9.773-3.845-32.113-13.462-38,4.334c-2.316,5.517-14.999,25-20.333,36
			s-10.764,18.673-25.531,9.786c-14.767-8.888-53.695-40.091-64.524-44.205l-4.795,10.628c0,0,57.637,40.112,70.136,43.884
			s23.692,7.543,31.377-8.571c7.685-16.113,19.866-42.432,26.434-45.94c8.984-4.8,18.311-1.364,22.57,1.419
			s16.101,8.052,5.554,22.173c-10.546,14.121-48.233,59.698-51.084,65.776c-5.136,10.384-15.361,11.459-29.403-3.985
			c-14.042-15.443-58.271-55.343-67.254-59.625C442.162,909.723,450,925.333,450,925.333z"/>
	</g>
	<g id="Nyakkendő">
		<path fill="#C8203A" d="M413.5,582c-8.777,0-21.249,2.075-28.487-2.65c-3.3-2.155-5.134-5.259-9.525-6.335
			c-11.639-2.853-23.196-1.15-33.496,3.981c-5.825,2.902-5.483,4.823-5.492,11.491c-0.007,5.428,1.165,8.524,2.902,13.489
			c2.765,7.902,5.185,17.486,11.574,23.024c4.578,3.968,9.879,2.404,14.988,0.78c5.519-1.755,10.957-3.26,16.534-5.144
			c9.228-3.115,17.908-6.564,26.391-10.221c8.878-3.826,18.764-2.273,28.512-3.691c5.109-0.744,7.94-1.205,11.696-4.129
			c3.578-2.785,5.989-4.849,11.292-4.596c4.962,0.236,9.328,1.505,14.488,1.5c6.85-0.007,13.827-0.396,20.658-0.025
			c7.241,0.392,20.88,6.961,25.939-0.975c5.14-8.063,2.322-18.55-0.99-26.498c-3.525-8.458-3.551-15.548-13.982-18
			c-8.321-1.956-17.124,2.093-24.516,4.998c-8.436,3.316-16.902,6.74-24.594,11.363c-6.859,4.123-11.239,2.471-19.031,2.111
			C428.535,572.02,417.102,576.282,411,584"/>
		<path d="M363.781,558.726"/>
		<path d="M456.961,581.159c7.567,10.244,5.5,27.316-19.376,31.299c-24.875,3.984-28.775-7.967-30.15-16.503
			c-1.375-8.537-4.664-21.973,19.947-25.609C446.642,567.499,449.395,570.915,456.961,581.159z M429.531,578.648
			c-14.247,2.139-12.344,10.04-11.547,15.059c0.796,5.02,3.053,12.046,17.454,9.705c14.399-2.343,15.596-12.382,11.216-18.406
			C442.272,578.984,440.68,576.975,429.531,578.648z"/>
		<path d="M420.913,609.613c-15.472,12.367-80.675,30.727-83.311,14.988c-2.636-15.737-9.521-60.328,14.423-59.637
			s57.464,12.654,60.046,13.923L420.913,609.613z M409.293,588.51c-1.994-0.869-32.843-11.622-51.331-12.095
			c-18.488-0.473-13.171,30.058-11.136,40.832c2.035,10.775,56.706-7.554,68.651-16.021L409.293,588.51z"/>
		<path d="M446.773,575.271c0,0,48.068-30.863,59.507-31.568s21.714,23.492,23.132,39.643c1.419,16.151-1.064,25.696-16.67,24.227
			c-15.604-1.47-52.49-1.969-57.101-7.775C455.642,599.797,450.319,575.638,446.773,575.271z M457.325,592.947
			c1.591,1.591,35.279,3.852,48.547,4.749c13.267,0.897,15.379-4.932,14.174-14.797c-1.207-9.864-7.873-28.646-16.382-26.18
			c-20.058,5.812-53.879,25.541-53.879,25.541C452.801,582.483,455.733,591.355,457.325,592.947z"/>
	</g>
</g>
</svg>
