<?xml version="1.0" encoding="utf-8"?>
<!-- Generator: Adobe Illustrator 16.0.0, SVG Export Plug-In . SVG Version: 6.00 Build 0)  -->
<!DOCTYPE svg PUBLIC "-//W3C//DTD SVG 1.1//EN" "http://www.w3.org/Graphics/SVG/1.1/DTD/svg11.dtd">
<svg version="1.1" id="Layer_1" xmlns="http://www.w3.org/2000/svg" xmlns:xlink="http://www.w3.org/1999/xlink" x="0px" y="0px"
	 width="438.37px" height="1158.32px" viewBox="0 0 438.37 1158.32" enable-background="new 0 0 438.37 1158.32"
	 xml:space="preserve">
<g id="Layer_1_1_">
</g>
<g id="Layer_2">
	<g id="Karóra">
		<path fill="#1FADCE" d="M184.008,718.009c-5.852,91.755-27.521,188.151-14.056,282.469c3.746,26.237,16.698,99.182,36.778,117.085
			c29.874,26.633,108.854,15.148,152.331,12.754c6.232-123.35-0.556-258.508-7.05-383.719c-55.466-2.683-112.136-1.05-167.994-1.05"
			/>
		<path fill="#1FADCE" d="M79.083,434.572c59.521-34.655,186.074-8.285,204.453-89.382c6.017-26.544-16.635-60.957-21.31-89.736
			c-5.614-34.788,0.765-74.176-1.053-109.183c-77.715-4.027-159.761-3.887-237.38,0c-2.25,45.422,4.043,82.64,12.486,124.481
			c6.911,34.243,8.852,103.088,28.706,129.385"/>
		<path fill="#5CA5B2" d="M177.691,723.924c84.598,7.718,136.069,9.869,210.141-28.74c18.108-60.683,10.896-140.781,7.015-204.289
			C327.855,444.22,209.435,373.406,155,434.411c-69.489,77.888-168.747,189.472-26.614,255.068"/>
		<path fill="#010101" d="M394.632,1156.232c-7.762-63.839,6.418-486.521-100.447-440.807
			c27.563,144.816,25.127,293.771,26.706,440.424C320.891,1156.446,387.377,1156.232,394.632,1156.232z"/>
		<path fill="#010101" d="M257.479,1156.244c0,0-44.908-183.682-66.041-408.443l-67.644-10.78c0,0-8.965,200.626,76.89,422.181
			L257.479,1156.244z"/>
		<path fill="#010101" d="M294.464,375.776c0,0-2.643-185.777-15.852-375.776h-55.587c0,0-2.757,256.936,0,375.776H294.464z"/>
		<path fill="#010101" d="M1.885,26.259c0,0,35.851,288.604,44.021,418.526l77.622-40.589c0,0-42.639-295.175-44.156-376.221
			L1.885,26.259z"/>
		<path fill="#010101" d="M37.33,618.728C12.669,533.572,6.517,373.195,175.588,355.11
			c169.067-18.086,240.395,90.422,259.505,183.852c19.101,93.43-9.472,209.365-177.613,229.203
			C106.903,785.917,61.993,703.88,37.33,618.728z M190.498,444.785c-57.342,7.369-86.237,62.75-78.313,135.088
			c7.926,72.337,31.538,121.769,120.118,116.439c88.577-5.349,138.77-77.686,122.918-152.606
			C339.373,468.782,276.734,433.694,190.498,444.785z"/>
		<path fill="#010101" d="M232.303,555.078c-46.148,4.744-46.056,56.797,0,60.933C278.366,620.14,278.459,550.334,232.303,555.078z"
			/>
		<path fill="#010101" d="M246.913,581.648c0,0,10.566-145.764,0-165.484h-49.18c0,0-1.055,165.484,24.063,165.484l19.834,26.645
			c0,0,81.892-7.753,87.175-15.502c5.284-7.752,6.604-30.266,0-37.723c-6.605-7.488-62.544-8.336-96.502,6.801"/>
	</g>
</g>
</svg>
