<?xml version="1.0" encoding="utf-8"?>
<!-- Generator: Adobe Illustrator 16.0.0, SVG Export Plug-In . SVG Version: 6.00 Build 0)  -->
<!DOCTYPE svg PUBLIC "-//W3C//DTD SVG 1.1//EN" "http://www.w3.org/Graphics/SVG/1.1/DTD/svg11.dtd">
<svg version="1.1" id="Layer_1" xmlns="http://www.w3.org/2000/svg" xmlns:xlink="http://www.w3.org/1999/xlink" x="0px" y="0px"
	 width="841.891px" height="1190.551px" viewBox="0 0 841.891 1190.551" enable-background="new 0 0 841.891 1190.551"
	 xml:space="preserve">
<g id="Layer_1_1_">
</g>
<g id="Layer_2">
	<g id="Karóra">
		<path fill="#1DADCE" d="M477.946,734.89c-5.151,82.599-24.229,169.378-12.374,254.285c3.298,23.62,14.7,89.286,32.379,105.402
			c26.301,23.976,95.835,13.637,134.11,11.482c5.487-111.043-0.489-232.716-6.206-345.434c-48.831-2.415-98.724-0.944-147.9-0.944"
			/>
		<path fill="#1DADCE" d="M385.572,479.734c52.402-31.198,163.818-7.458,179.999-80.464c5.297-23.896-14.646-54.875-18.761-80.783
			c-4.942-31.317,0.673-66.775-0.927-98.29c-68.419-3.625-140.652-3.499-208.987,0c-1.98,40.89,3.56,74.395,10.993,112.062
			c6.084,30.826,7.792,92.802,25.272,116.476"/>
		<path fill="#5BA5B2" d="M472.385,740.215c74.479,6.949,119.794,8.885,185.005-25.873c15.942-54.628,9.594-126.734,6.176-183.905
			c-58.978-42.018-163.234-105.767-211.158-50.849c-61.178,70.117-148.563,170.567-23.431,229.618"/>
		<path d="M663.377,1129.39c-6.832-57.47,5.651-437.979-88.432-396.826c24.266,130.368,22.121,264.461,23.512,396.481
			C598.457,1129.583,656.99,1129.39,663.377,1129.39z"/>
		<path d="M542.631,1129.4c0,0-39.538-165.354-58.143-367.691l-59.553-9.703c0,0-7.893,180.607,67.692,380.057L542.631,1129.4z"/>
		<path d="M575.19,426.803c0,0-2.326-167.242-13.955-338.283h-48.938c0,0-2.427,231.3,0,338.283H575.19z"/>
		<path d="M317.607,112.159c0,0,31.563,259.809,38.756,376.767l68.337-36.54c0,0-37.539-265.724-38.875-338.684L317.607,112.159z"/>
		<path d="M348.812,645.514c-21.711-76.659-27.127-221.035,121.721-237.315c148.846-16.281,211.641,81.4,228.466,165.508
			c16.816,84.108-8.339,188.475-156.368,206.334C410.064,796.022,370.526,722.171,348.812,645.514z M483.66,488.927
			c-50.483,6.633-75.922,56.489-68.946,121.61c6.979,65.119,27.766,109.619,105.751,104.82
			c77.982-4.815,122.171-69.935,108.216-137.38C614.728,510.53,559.582,478.943,483.66,488.927z"/>
		<path d="M520.465,588.216c-40.629,4.271-40.547,51.13,0,54.854C561.018,646.786,561.1,583.945,520.465,588.216z"/>
		<path d="M533.328,612.135c0,0,9.303-131.221,0-148.973H490.03c0,0-0.929,148.973,21.185,148.973l17.461,23.985
			c0,0,72.098-6.979,76.748-13.955c4.652-6.979,5.814-27.246,0-33.959c-5.814-6.741-55.063-7.504-84.959,6.123"/>
	</g>
</g>
</svg>
